<svg width="28" height="28" viewBox="0 0 28 28" fill="none" xmlns="http://www.w3.org/2000/svg">
<path d="M19.75 25H8.25C7.83579 25 7.5 24.6642 7.5 24.25C7.5 23.8703 7.78215 23.5565 8.14823 23.5068L8.25 23.5L10 23.4996V21.0016L4.25 21.0018C3.00736 21.0018 2 19.9945 2 18.7518V5.24956C2 4.00692 3.00736 2.99956 4.25 2.99956H23.7488C24.9915 2.99956 25.9988 4.00692 25.9988 5.24956V18.7518C25.9988 19.9945 24.9915 21.0018 23.7488 21.0018L17.998 21.0016V23.4996L19.75 23.5C20.1297 23.5 20.4435 23.7822 20.4932 24.1482L20.5 24.25C20.5 24.6297 20.2178 24.9435 19.8518 24.9932L19.75 25H8.25H19.75ZM16.498 21.0016H11.5V23.5H16.4988L16.498 21.0016ZM23.7488 4.49956H4.25C3.83579 4.49956 3.5 4.83535 3.5 5.24956V18.7518C3.5 19.166 3.83579 19.5018 4.25 19.5018L17.2488 19.5L17.277 19.5016L23.7488 19.5018C24.163 19.5018 24.4988 19.166 24.4988 18.7518V5.24956C24.4988 4.83535 24.163 4.49956 23.7488 4.49956Z" fill="black"/>
</svg>
