<svg width="28" height="28" viewBox="0 0 28 28" fill="none" xmlns="http://www.w3.org/2000/svg">
<path d="M25.9994 20.7511C25.9994 21.9938 24.9921 23.0011 23.7494 23.0011H4.25058C3.00794 23.0011 2.00058 21.9938 2.00058 20.7511V18.5H3.50058V20.7511C3.50058 21.1653 3.83637 21.5011 4.25058 21.5011L17.2494 21.4993L17.2776 21.5009L23.7494 21.5011C24.1636 21.5011 24.4994 21.1653 24.4994 20.7511V18.5H25.9994V20.7511Z" fill="black"/>
<path d="M3.50058 9.5V7.24886C3.50058 6.83464 3.83637 6.49886 4.25058 6.49886H23.7494C24.1636 6.49886 24.4994 6.83464 24.4994 7.24886V9.5H25.9994V7.24886C25.9994 6.00622 24.9921 4.99886 23.7494 4.99886H4.25058C3.00794 4.99886 2.00058 6.00622 2.00058 7.24886V9.5H3.50058Z" fill="black"/>
<path d="M19.6818 10.7617C19.3992 10.4589 19.4156 9.98433 19.7184 9.7017C20.0212 9.41908 20.4958 9.43544 20.7784 9.73826L24.2784 13.4883C24.5474 13.7764 24.5474 14.2236 24.2784 14.5117L20.7784 18.2617C20.4958 18.5645 20.0212 18.5809 19.7184 18.2983C19.4156 18.0157 19.3992 17.5411 19.6818 17.2383L22.0042 14.75H16.2301C15.8159 14.75 15.4801 14.4142 15.4801 14C15.4801 13.5858 15.8159 13.25 16.2301 13.25H22.0042L19.6818 10.7617Z" fill="black"/>
<path d="M8.31814 10.7617C8.60077 10.4589 8.5844 9.98434 8.28159 9.70171C7.97878 9.41909 7.50419 9.43545 7.22156 9.73826L3.72156 13.4883C3.45262 13.7764 3.45262 14.2236 3.72156 14.5117L7.22156 18.2617C7.50419 18.5646 7.97878 18.5809 8.28159 18.2983C8.5844 18.0157 8.60077 17.5411 8.31814 17.2383L5.99577 14.75H11.7699C12.1841 14.75 12.5199 14.4142 12.5199 14C12.5199 13.5858 12.1841 13.25 11.7699 13.25H5.99577L8.31814 10.7617Z" fill="black"/>
<path d="M2.00058 9.5V9.75L2.00743 9.85177C2.05709 10.2178 2.37088 10.5 2.75058 10.5L2.85235 10.4932C3.21788 10.4436 3.49973 10.1306 3.50058 9.75171L3.50058 9.5H2.00058Z" fill="black"/>
<path d="M3.50058 18.5V18.25L3.49373 18.1482C3.44407 17.7822 3.13028 17.5 2.75058 17.5L2.64881 17.5069C2.28328 17.5564 2.00143 17.8694 2.00058 18.2483L2.00058 18.5H3.50058Z" fill="black"/>
<path d="M24.4994 9.5V9.75L24.5063 9.85177C24.5559 10.2178 24.8697 10.5 25.2494 10.5L25.3512 10.4932C25.7167 10.4436 25.9986 10.1306 25.9994 9.75171L25.9994 9.5H24.4994Z" fill="black"/>
<path d="M25.9994 18.5V18.25L25.9926 18.1482C25.9429 17.7822 25.6291 17.5 25.2494 17.5L25.1476 17.5068C24.7821 17.5564 24.5003 17.8694 24.4994 18.2483L24.4994 18.5H25.9994Z" fill="black"/>
</svg>
