<svg width="28" height="28" viewBox="0 0 28 28" fill="none" xmlns="http://www.w3.org/2000/svg">
<path d="M11.75 21.5C11.3358 21.5 11 21.1642 11 20.75C11 20.3358 11.3358 20 11.75 20H18C19.1046 20 20 19.1046 20 18V10C20 8.89543 19.1046 8 18 8H11.75C11.3358 8 11 7.66421 11 7.25C11 6.83579 11.3358 6.5 11.75 6.5H18C19.933 6.5 21.5 8.067 21.5 10V18C21.5 19.933 19.933 21.5 18 21.5H11.75ZM11.7413 10.1989C12.0457 9.91795 12.5201 9.93693 12.8011 10.2413L15.8011 13.4913C16.0663 13.7786 16.0663 14.2214 15.8011 14.5087L12.8011 17.7587C12.5201 18.0631 12.0457 18.0821 11.7413 17.8011C11.4369 17.5202 11.4179 17.0457 11.6989 16.7413L13.537 14.75H5.75C5.33579 14.75 5 14.4142 5 14C5 13.5858 5.33579 13.25 5.75 13.25H13.537L11.6989 11.2587C11.4179 10.9543 11.4369 10.4799 11.7413 10.1989Z" fill="black"/>
</svg>
