<svg width="28" height="28" viewBox="0 0 28 28" fill="none" xmlns="http://www.w3.org/2000/svg">
<path d="M16.75 21.5C17.1642 21.5 17.5 21.1642 17.5 20.75C17.5 20.3358 17.1642 20 16.75 20H10.5C9.39543 20 8.5 19.1046 8.5 18V10C8.5 8.89543 9.39543 8 10.5 8H16.75C17.1642 8 17.5 7.66421 17.5 7.25C17.5 6.83579 17.1642 6.5 16.75 6.5H10.5C8.567 6.5 7 8.067 7 10V18C7 19.933 8.567 21.5 10.5 21.5H16.75ZM17.7413 10.1989C18.0457 9.91795 18.5201 9.93693 18.8011 10.2413L21.8011 13.4913C22.0663 13.7786 22.0663 14.2214 21.8011 14.5087L18.8011 17.7587C18.5201 18.0631 18.0457 18.0821 17.7413 17.8011C17.4369 17.5202 17.4179 17.0457 17.6989 16.7413L19.537 14.75H11.75C11.3358 14.75 11 14.4142 11 14C11 13.5858 11.3358 13.25 11.75 13.25H19.537L17.6989 11.2587C17.4179 10.9543 17.4369 10.4799 17.7413 10.1989Z" fill="black"/>
</svg>
