<svg width="28" height="28" viewBox="0 0 28 28" fill="none" xmlns="http://www.w3.org/2000/svg">
<path d="M21.7488 5.99956C22.9915 5.99956 23.9988 7.00692 23.9988 8.24956V19.7518C23.9988 20.9945 22.9915 22.0018 21.7488 22.0018H6.25C5.00736 22.0018 4 20.9945 4 19.7518V8.24956C4 7.00692 5.00736 5.99956 6.25 5.99956H21.7488ZM21.7488 7.49956H6.25C5.83579 7.49956 5.5 7.83535 5.5 8.24956V19.7518C5.5 20.166 5.83579 20.5018 6.25 20.5018H21.7488C22.163 20.5018 22.4988 20.166 22.4988 19.7518V8.24956C22.4988 7.83535 22.163 7.49956 21.7488 7.49956ZM12.25 17.5H15.75C16.1642 17.5 16.5 17.8358 16.5 18.25C16.5 18.6297 16.2178 18.9435 15.8518 18.9932L15.75 19H12.25C11.8358 19 11.5 18.6642 11.5 18.25C11.5 17.8703 11.7822 17.5565 12.1482 17.5068L12.25 17.5H15.75H12.25Z" fill="black"/>
</svg>
